<svg width="240" height="305" viewBox="0 0 240 305" fill="none" xmlns="http://www.w3.org/2000/svg">
<path d="M0 10C0 4.47716 4.47715 0 10 0H230C235.523 0 240 4.47715 240 10V295C240 300.523 235.523 305 230 305H10C4.47716 305 0 300.523 0 295V10Z" fill="#F0F0F0"/>
<path d="M20 29C20 23.4772 24.4772 19 30 19H210C215.523 19 220 23.4772 220 29V209C220 214.523 215.523 219 210 219H30C24.4772 219 20 214.523 20 209V29Z" fill="white"/>
<path d="M20 247C20 241.477 24.4772 237 30 237H160C165.523 237 170 241.477 170 247V252C170 257.523 165.523 262 160 262H30C24.4772 262 20 257.523 20 252V247Z" fill="white"/>
<path d="M20 278.5C20 274.358 23.3579 271 27.5 271H107.5C111.642 271 115 274.358 115 278.5V278.5C115 282.642 111.642 286 107.5 286H27.5C23.3579 286 20 282.642 20 278.5V278.5Z" fill="white"/>
<path d="M125 278.5C125 274.358 128.358 271 132.5 271H212.5C216.642 271 220 274.358 220 278.5V278.5C220 282.642 216.642 286 212.5 286H132.5C128.358 286 125 282.642 125 278.5V278.5Z" fill="white"/>
</svg>
